<svg width="106" height="148" viewBox="0 0 106 148" fill="none" xmlns="http://www.w3.org/2000/svg">
<g id="Subtract">
<mask id="path-1-inside-1_42_216" fill="white">
<path fill-rule="evenodd" clip-rule="evenodd" d="M106 0L35 0C15.67 0 0 15.67 0 35V113C0 132.33 15.67 148 35 148H106V144H35C17.8792 144 4 130.121 4 113V35C4 17.8792 17.8792 4 35 4H106V0Z"/>
</mask>
<path d="M106 0H107.5V-1.5L106 -1.5V0ZM106 148V149.5H107.5V148H106ZM106 144H107.5V142.5H106V144ZM106 4V5.5H107.5V4H106ZM106 -1.5L97.125 -1.5V1.5L106 1.5V-1.5ZM79.375 -1.5L61.625 -1.5V1.5L79.375 1.5V-1.5ZM43.875 -1.5L35 -1.5V1.5L43.875 1.5V-1.5ZM35 -1.5C30.0537 -1.5 25.3336 -0.515278 21.0278 1.27023L22.177 4.04141C26.1248 2.40431 30.4549 1.5 35 1.5V-1.5ZM1.27023 21.0278C-0.515278 25.3336 -1.5 30.0537 -1.5 35H1.5C1.5 30.4549 2.40431 26.1248 4.04141 22.177L1.27023 21.0278ZM-1.5 35V44.75H1.5V35H-1.5ZM-1.5 64.25V83.75H1.5V64.25H-1.5ZM-1.5 103.25V113H1.5V103.25H-1.5ZM-1.5 113C-1.5 117.946 -0.51528 122.666 1.27023 126.972L4.0414 125.823C2.40431 121.875 1.5 117.545 1.5 113H-1.5ZM21.0278 146.73C25.3335 148.515 30.0537 149.5 35 149.5V146.5C30.4549 146.5 26.1248 145.596 22.177 143.959L21.0278 146.73ZM35 149.5H43.875V146.5H35V149.5ZM61.625 149.5H79.375V146.5H61.625V149.5ZM97.125 149.5H106V146.5H97.125V149.5ZM107.5 148V147H104.5V148H107.5ZM107.5 145V144H104.5V145H107.5ZM106 142.5H97.125V145.5H106V142.5ZM79.375 142.5H61.625V145.5H79.375V142.5ZM43.875 142.5H35V145.5H43.875V142.5ZM35 142.5C30.9973 142.5 27.1843 141.704 23.7081 140.262L22.559 143.033C26.3931 144.623 30.596 145.5 35 145.5V142.5ZM7.73788 124.292C6.29636 120.816 5.5 117.003 5.5 113H2.5C2.5 117.404 3.37678 121.607 4.9667 125.441L7.73788 124.292ZM5.5 113V103.25H2.5V113H5.5ZM5.5 83.75V64.25H2.5V83.75H5.5ZM5.5 44.75V35H2.5V44.75H5.5ZM5.5 35C5.5 30.9973 6.29636 27.1844 7.73789 23.7082L4.96671 22.559C3.37678 26.3931 2.5 30.596 2.5 35H5.5ZM23.7082 7.73789C27.1844 6.29636 30.9973 5.5 35 5.5V2.5C30.596 2.5 26.3931 3.37678 22.559 4.96671L23.7082 7.73789ZM35 5.5H43.875V2.5H35V5.5ZM61.625 5.5H79.375V2.5H61.625V5.5ZM97.125 5.5H106V2.5H97.125V5.5ZM107.5 4V3H104.5V4H107.5ZM107.5 1V0H104.5V1H107.5ZM106 0H109V-3L106 -3V0ZM106 148V151H109V148H106ZM106 144H109V141H106V144ZM106 4V7H109V4H106ZM106 -3L97.125 -3V3L106 3V-3ZM79.375 -3L61.625 -3V3L79.375 3V-3ZM43.875 -3L35 -3V3L43.875 3V-3ZM35 -3C29.8531 -3 24.9379 -1.97507 20.4533 -0.115359L22.7516 5.427C26.5205 3.8641 30.6555 3 35 3V-3ZM-0.115359 20.4533C-1.97507 24.9379 -3 29.8531 -3 35H3C3 30.6555 3.8641 26.5205 5.427 22.7516L-0.115359 20.4533ZM-3 35V44.75H3V35H-3ZM-3 64.25V83.75H3V64.25H-3ZM-3 103.25V113H3V103.25H-3ZM-3 113C-3 118.147 -1.97507 123.062 -0.115363 127.547L5.42699 125.248C3.8641 121.48 3 117.344 3 113H-3ZM20.4533 148.115C24.9379 149.975 29.853 151 35 151V145C30.6555 145 26.5205 144.136 22.7516 142.573L20.4533 148.115ZM35 151H43.875V145H35V151ZM61.625 151H79.375V145H61.625V151ZM97.125 151H106V145H97.125V151ZM109 148V147H103V148H109ZM109 145V144H103V145H109ZM106 141H97.125V147H106V141ZM79.375 141H61.625V147H79.375V141ZM43.875 141H35V147H43.875V141ZM35 141C31.1979 141 27.58 140.244 24.2827 138.877L21.9844 144.419C25.9974 146.083 30.3954 147 35 147V141ZM9.12347 123.717C7.75616 120.42 7 116.802 7 113H1C1 117.605 1.91698 122.003 3.58111 126.016L9.12347 123.717ZM7 113V103.25H1V113H7ZM7 83.75V64.25H1V83.75H7ZM7 44.75V35H1V44.75H7ZM7 35C7 31.1979 7.75616 27.58 9.12347 24.2827L3.58112 21.9844C1.91698 25.9974 1 30.3954 1 35H7ZM24.2827 9.12348C27.58 7.75616 31.1979 7 35 7V1C30.3954 1 25.9974 1.91698 21.9844 3.58112L24.2827 9.12348ZM35 7H43.875V1H35V7ZM61.625 7H79.375V1H61.625V7ZM97.125 7H106V1H97.125V7ZM109 4V3H103V4H109ZM109 1V0H103V1H109Z" fill="#0F4AD2" mask="url(#path-1-inside-1_42_216)"/>
</g>
</svg>
